<?xml version="1.0" encoding="utf-8"?>
<!-- Generator: Adobe Illustrator 15.0.2, SVG Export Plug-In  -->
<!DOCTYPE svg PUBLIC "-//W3C//DTD SVG 1.1//EN" "http://www.w3.org/Graphics/SVG/1.1/DTD/svg11.dtd" [
	<!ENTITY ns_flows "http://ns.adobe.com/Flows/1.0/">
]>
<svg version="1.1"
	 xmlns="http://www.w3.org/2000/svg" xmlns:xlink="http://www.w3.org/1999/xlink" xmlns:a="http://ns.adobe.com/AdobeSVGViewerExtensions/3.0/"
	 x="0px" y="0px" width="58px" height="358px" viewBox="-11.5 -3.47 58 358" enable-background="new -11.5 -3.47 58 358"
	 xml:space="preserve">
<defs>
</defs>
<polyline fill="none" stroke="#FFFFFF" stroke-width="1.5" stroke-miterlimit="10" points="17.609,29.101 31.895,14.815 
	17.609,0.53 "/>
<polyline fill="none" stroke="#FFFFFF" stroke-width="1.5" stroke-miterlimit="10" points="31.894,70.308 17.61,56.022 
	31.894,41.737 "/>
<path fill="#FFFFFF" stroke="#FFFFFF" stroke-miterlimit="10" d="M24.944,91.486v2.616h-1.917V97.3h1.917v8.778h3.937V97.3h2.642
	c0,0,0.248-1.534,0.366-3.211h-2.992v-2.187c0-0.327,0.429-0.768,0.853-0.768h2.146v-3.33h-2.916
	C24.848,87.805,24.944,91.007,24.944,91.486"/>
<path fill="#FFFFFF" stroke="#FFFFFF" stroke-miterlimit="10" d="M29.902,134.251h-3.938c-0.548,0-1.013-0.19-1.396-0.576
	c-0.384-0.385-0.573-0.851-0.573-1.4v-1.402h5.611c0.507,0,0.941-0.182,1.305-0.543c0.361-0.364,0.544-0.799,0.544-1.306
	c0-0.509-0.183-0.944-0.545-1.308c-0.364-0.361-0.801-0.543-1.31-0.543h-5.605v-4.354c0-0.548-0.195-1.018-0.584-1.408
	c-0.387-0.392-0.854-0.588-1.396-0.588c-0.558,0-1.033,0.193-1.419,0.576c-0.388,0.384-0.582,0.857-0.582,1.422v9.455
	c0,1.645,0.582,3.05,1.745,4.216c1.164,1.168,2.567,1.751,4.208,1.751h3.938c0.547,0,1.016-0.197,1.405-0.588
	c0.392-0.39,0.586-0.86,0.586-1.407c0-0.548-0.194-1.017-0.586-1.409C30.919,134.449,30.449,134.251,29.902,134.251"/>
<path fill="#FFFFFF" stroke="#FFFFFF" stroke-miterlimit="10" d="M24.534,151.341c-5.524,0-8.311,3.96-8.311,7.263
	c0,2,0.758,3.779,2.381,4.442c0.268,0.109,0.505,0.004,0.582-0.291c0.055-0.204,0.182-0.719,0.238-0.933
	c0.078-0.292,0.048-0.395-0.167-0.648c-0.468-0.552-0.769-1.268-0.769-2.28c0-2.938,2.199-5.568,5.726-5.568
	c3.122,0,4.838,1.908,4.838,4.456c0,3.352-1.484,6.182-3.687,6.182c-1.217,0-2.127-1.006-1.836-2.24
	c0.351-1.473,1.027-3.062,1.027-4.126c0-0.952-0.511-1.745-1.568-1.745c-1.243,0-2.242,1.286-2.242,3.01
	c0,1.097,0.371,1.84,0.371,1.84s-1.272,5.392-1.495,6.336c-0.445,1.88-0.067,4.185-0.035,4.418c0.019,0.138,0.196,0.171,0.275,0.065
	c0.115-0.148,1.597-1.977,2.1-3.804c0.143-0.517,0.817-3.196,0.817-3.196c0.404,0.771,1.586,1.449,2.841,1.449
	c3.737,0,6.273-3.407,6.273-7.968C31.895,154.553,28.974,151.341,24.534,151.341"/>
<path fill="#FFFFFF" stroke="#FFFFFF" stroke-miterlimit="10" d="M15.434,192.068c0.378-0.431,0.874-0.66,1.434-0.66
	c0.021,0,0.041,0.001,0.062,0.001c1.467,0.044,2.865,1.64,3.117,3.559c0.144,1.097-0.097,2.096-0.663,2.739
	c-0.378,0.432-0.868,0.659-1.417,0.659c-0.02,0-0.039,0-0.059-0.001c-1.464-0.044-2.862-1.664-3.118-3.611
	C14.647,193.675,14.882,192.697,15.434,192.068 M13.5,205.61c0-1.571,1.933-2.95,4.136-2.95l0.058,0.001
	c0.491,0.005,0.969,0.08,1.418,0.224c0.153,0.105,0.301,0.206,0.442,0.303c1.003,0.683,1.665,1.135,1.869,1.933
	c0.046,0.193,0.069,0.389,0.069,0.579c0,1.929-1.451,2.949-4.196,2.949C15.167,208.648,13.5,207.313,13.5,205.61 M21.212,201.407
	c-0.616-0.436-1.507-1.302-1.507-1.726c0-0.567,0.142-0.844,1.085-1.58c1.153-0.902,1.764-2.021,1.764-3.236
	c0-1.189-0.43-2.574-1.36-3.256h1.215l1.792-1.4h-6.516c-2.828,0-5.402,2.184-5.402,4.579c0,2.63,1.998,4.54,4.75,4.54
	c0.1,0,0.19-0.002,0.275-0.004c-0.132,0.32-0.199,0.632-0.199,0.935c0,0.521,0.195,1.011,0.595,1.486
	c-0.037,0.001-0.074,0.002-0.11,0.002c-0.174,0.003-0.349,0.005-0.532,0.005c-3.295,0-6.079,2.063-6.079,4.503
	c0,2.146,2.661,3.702,6.326,3.702c3.991,0,6.078-2.265,6.078-4.503C23.386,203.602,22.816,202.542,21.212,201.407"/>
<polygon fill="#FFFFFF" stroke="#FFFFFF" stroke-miterlimit="10" points="28.045,198.582 28.045,194.732 26.645,194.732 
	26.645,198.582 22.795,198.582 22.795,199.982 26.645,199.982 26.645,203.832 28.045,203.832 28.045,199.982 31.895,199.982 
	31.895,198.582 "/>
<path fill="#FFFFFF" stroke="#FFFFFF" stroke-miterlimit="10" d="M30.6,225.788H16.056c-0.715,0-1.295,0.579-1.295,1.295v1.296
	h13.248c0.716,0,1.295,0.58,1.295,1.295v6.671v1.296H30.6c0.716,0,1.295-0.58,1.295-1.296v-9.262
	C31.895,226.367,31.315,225.788,30.6,225.788"/>
<path fill="#FFFFFF" stroke="#FFFFFF" stroke-miterlimit="10" d="M26.585,229.76h-14.51c-0.715,0-1.295,0.58-1.295,1.295
	c0,0.019,0.001,0.036,0.001,0.053v10.529c0,0.709,0.569,1.284,1.274,1.295v0.001h4.96c0,0,6.641,3.472,7.121,3.707
	c0.756,0.371,1.152-0.026,1.152-0.467v-3.24h1.296c0.716,0,1.296-0.58,1.296-1.296v-10.582
	C27.881,230.34,27.301,229.76,26.585,229.76"/>
<path fill="#FFFFFF" stroke="#FFFFFF" stroke-miterlimit="10" d="M21.553,285.852c-0.433,3.579-3.487,6.362-7.182,6.362
	c-3.991,0-7.237-3.247-7.237-7.236c0-2.243,1.025-4.25,2.631-5.578v-3.028c-3.066,1.648-5.157,4.887-5.157,8.606
	c0,5.383,4.38,9.763,9.764,9.763c4.084,0,7.588-2.521,9.043-6.088L21.553,285.852z"/>
<path fill="#FFFFFF" stroke="#FFFFFF" stroke-miterlimit="10" d="M30.69,287.655l-2.015,1.389l-5.18-8.671l-9.941,0.058v-2.059
	h5.263v-2.21h-5.263v-5.11c1.229-0.468,2.104-1.653,2.104-3.048c0-1.802-1.461-3.263-3.263-3.263s-3.263,1.461-3.263,3.263
	c0,1.433,0.926,2.648,2.211,3.086v11.493l10.926,0.012l5.662,9.486l3.962-2.572L30.69,287.655z"/>
<polygon fill="#FFFFFF" stroke="#FFFFFF" stroke-miterlimit="10" points="4.103,339.657 2.875,339.657 2.875,340.143 4.003,340.143 
	4.003,340.553 2.875,340.553 2.875,341.151 4.158,341.151 4.158,341.562 2.401,341.562 2.401,339.247 4.103,339.247 "/>
<path fill="#FFFFFF" stroke="#FFFFFF" stroke-miterlimit="10" d="M6.749,341.467l-0.252-0.238c0.142-0.18,0.242-0.444,0.242-0.825
	c0-1.086-0.807-1.218-1.112-1.218s-1.112,0.132-1.112,1.218c0,1.088,0.807,1.219,1.112,1.219c0.135,0,0.374-0.025,0.593-0.155
	l0.274,0.261L6.749,341.467z M5.656,340.932l0.231,0.219c-0.087,0.046-0.181,0.062-0.261,0.062c-0.261,0-0.629-0.16-0.629-0.809
	c0-0.647,0.368-0.809,0.629-0.809s0.629,0.161,0.629,0.809c0,0.218-0.042,0.378-0.106,0.497l-0.245-0.229L5.656,340.932z"/>
<path fill="#FFFFFF" stroke="#FFFFFF" stroke-miterlimit="10" d="M9.015,340.752c0,0.608-0.368,0.87-0.951,0.87
	c-0.213,0-0.529-0.052-0.734-0.28c-0.126-0.141-0.175-0.33-0.181-0.561v-1.534h0.493v1.501c0,0.323,0.188,0.464,0.412,0.464
	c0.332,0,0.467-0.161,0.467-0.441v-1.523h0.494V340.752z"/>
<path fill="#FFFFFF" stroke="#FFFFFF" stroke-miterlimit="10" d="M9.884,341.083h0.854l0.149,0.478h0.524l-0.814-2.313h-0.559
	l-0.824,2.313h0.509L9.884,341.083z M10.31,339.769h0.007l0.286,0.915h-0.59L10.31,339.769z"/>
<polygon fill="#FFFFFF" stroke="#FFFFFF" stroke-miterlimit="10" points="12.272,341.142 13.423,341.142 13.423,341.561 
	11.788,341.561 11.788,339.248 12.272,339.248 "/>
<polygon fill="#FFFFFF" stroke="#FFFFFF" stroke-miterlimit="10" points="15.256,340.523 15.256,341.561 14.773,341.561 
	14.773,339.247 15.256,339.247 15.256,340.125 16.159,340.125 16.159,339.247 16.642,339.247 16.642,341.561 16.159,341.561 
	16.159,340.523 "/>
<path fill="#FFFFFF" stroke="#FFFFFF" stroke-miterlimit="10" d="M17.08,340.404c0,1.087,0.806,1.218,1.111,1.218
	c0.308,0,1.112-0.131,1.112-1.218c0-1.086-0.805-1.218-1.112-1.218C17.886,339.186,17.08,339.318,17.08,340.404 M17.563,340.404
	c0-0.647,0.367-0.809,0.628-0.809c0.262,0,0.629,0.161,0.629,0.809c0,0.648-0.367,0.81-0.629,0.81
	C17.931,341.213,17.563,341.052,17.563,340.404"/>
<path fill="#FFFFFF" stroke="#FFFFFF" stroke-miterlimit="10" d="M21.612,340.752c0,0.608-0.368,0.87-0.952,0.87
	c-0.212,0-0.527-0.052-0.734-0.28c-0.126-0.141-0.175-0.33-0.18-0.561v-1.534h0.492v1.501c0,0.323,0.188,0.464,0.414,0.464
	c0.331,0,0.467-0.161,0.467-0.441v-1.523h0.493V340.752z"/>
<path fill="#FFFFFF" stroke="#FFFFFF" stroke-miterlimit="10" d="M22.497,340.849c0.004,0.128,0.068,0.374,0.49,0.374
	c0.229,0,0.483-0.056,0.483-0.302c0-0.179-0.174-0.228-0.418-0.285l-0.249-0.059c-0.375-0.087-0.735-0.17-0.735-0.679
	c0-0.258,0.14-0.713,0.891-0.713c0.709,0,0.898,0.464,0.903,0.748h-0.466c-0.013-0.103-0.051-0.349-0.474-0.349
	c-0.184,0-0.402,0.067-0.402,0.277c0,0.181,0.148,0.219,0.244,0.241l0.564,0.139c0.315,0.077,0.605,0.207,0.605,0.622
	c0,0.697-0.709,0.757-0.912,0.757c-0.844,0-0.988-0.485-0.988-0.772H22.497z"/>
<rect x="24.332" y="339.248" fill="#FFFFFF" stroke="#FFFFFF" stroke-miterlimit="10" width="0.482" height="2.313"/>
<polygon fill="#FFFFFF" stroke="#FFFFFF" stroke-miterlimit="10" points="26.746,339.247 27.196,339.247 27.196,341.561 
	26.714,341.561 25.77,339.911 25.762,339.911 25.762,341.561 25.311,341.561 25.311,339.247 25.819,339.247 26.737,340.859 
	26.746,340.859 "/>
<path fill="#FFFFFF" stroke="#FFFFFF" stroke-miterlimit="10" d="M28.814,340.314h0.966v1.247h-0.322l-0.048-0.289
	c-0.122,0.141-0.3,0.351-0.722,0.351c-0.557,0-1.063-0.399-1.063-1.211c0-0.633,0.353-1.229,1.132-1.226
	c0.71,0,0.989,0.46,1.015,0.78h-0.483c0-0.09-0.165-0.381-0.506-0.381c-0.346,0-0.664,0.238-0.664,0.831
	c0,0.633,0.346,0.796,0.673,0.796c0.106,0,0.462-0.041,0.562-0.509h-0.538V340.314z"/>
<path fill="#FFFFFF" stroke="#FFFFFF" stroke-miterlimit="10" d="M2.298,343.92c0,1.086,0.806,1.219,1.112,1.219
	c0.306,0,1.112-0.133,1.112-1.219c0-1.087-0.807-1.219-1.112-1.219C3.104,342.702,2.298,342.833,2.298,343.92 M2.782,343.92
	c0-0.648,0.367-0.81,0.628-0.81s0.628,0.161,0.628,0.81c0,0.646-0.367,0.81-0.628,0.81S2.782,344.567,2.782,343.92"/>
<path fill="#FFFFFF" stroke="#FFFFFF" stroke-miterlimit="10" d="M5.847,344.243H6.4c0.622,0,0.738-0.529,0.738-0.738
	c0-0.454-0.271-0.741-0.72-0.741H5.363v2.314h0.483V344.243z M5.847,343.842v-0.681H6.23c0.299,0,0.425,0.095,0.425,0.319
	c0,0.104,0,0.361-0.361,0.361H5.847z"/>
<path fill="#FFFFFF" stroke="#FFFFFF" stroke-miterlimit="10" d="M8.45,344.243h0.554c0.622,0,0.738-0.529,0.738-0.738
	c0-0.454-0.271-0.741-0.718-0.741H7.966v2.314H8.45V344.243z M8.45,343.842v-0.681h0.383c0.3,0,0.425,0.095,0.425,0.319
	c0,0.104,0,0.361-0.359,0.361H8.45z"/>
<path fill="#FFFFFF" stroke="#FFFFFF" stroke-miterlimit="10" d="M10.468,343.92c0,1.086,0.806,1.219,1.112,1.219
	c0.306,0,1.111-0.133,1.111-1.219c0-1.087-0.806-1.219-1.111-1.219C11.273,342.702,10.468,342.833,10.468,343.92 M10.951,343.92
	c0-0.648,0.366-0.81,0.629-0.81c0.261,0,0.628,0.161,0.628,0.81c0,0.646-0.367,0.81-0.628,0.81
	C11.317,344.73,10.951,344.567,10.951,343.92"/>
<path fill="#FFFFFF" stroke="#FFFFFF" stroke-miterlimit="10" d="M13.531,345.078h0.476v-0.906h0.499
	c0.357,0,0.377,0.122,0.377,0.438c0,0.237,0.019,0.356,0.051,0.468h0.535v-0.063c-0.104-0.038-0.104-0.122-0.104-0.459
	c0-0.433-0.103-0.503-0.293-0.587c0.229-0.077,0.357-0.297,0.357-0.551c0-0.2-0.112-0.654-0.728-0.654h-1.171V345.078z
	 M14.007,343.782v-0.62h0.602c0.283,0,0.338,0.182,0.338,0.304c0,0.229-0.121,0.316-0.374,0.316H14.007z"/>
<polygon fill="#FFFFFF" stroke="#FFFFFF" stroke-miterlimit="10" points="17.231,345.078 16.748,345.078 16.748,343.172 
	16.05,343.172 16.05,342.763 17.932,342.763 17.932,343.172 17.231,343.172 "/>
<path fill="#FFFFFF" stroke="#FFFFFF" stroke-miterlimit="10" d="M20.525,344.267c0,0.609-0.367,0.872-0.951,0.872
	c-0.212,0-0.528-0.054-0.734-0.282c-0.126-0.141-0.175-0.327-0.18-0.56v-1.534h0.492v1.501c0,0.322,0.187,0.465,0.413,0.465
	c0.332,0,0.467-0.162,0.467-0.441v-1.524h0.493V344.267z"/>
<polygon fill="#FFFFFF" stroke="#FFFFFF" stroke-miterlimit="10" points="22.864,342.763 23.316,342.763 23.316,345.077 
	22.833,345.077 21.888,343.427 21.883,343.427 21.883,345.077 21.431,345.077 21.431,342.763 21.939,342.763 22.858,344.375 
	22.864,344.375 "/>
<rect x="24.195" y="342.763" fill="#FFFFFF" stroke="#FFFFFF" stroke-miterlimit="10" width="0.485" height="2.314"/>
<polygon fill="#FFFFFF" stroke="#FFFFFF" stroke-miterlimit="10" points="26.567,345.078 26.085,345.078 26.085,343.172 
	25.386,343.172 25.386,342.763 27.268,342.763 27.268,343.172 26.567,343.172 "/>
<polygon fill="#FFFFFF" stroke="#FFFFFF" stroke-miterlimit="10" points="29.095,345.078 28.611,345.078 28.611,344.204 
	27.812,342.763 28.382,342.763 28.863,343.769 29.321,342.763 29.868,342.763 29.095,344.209 "/>
<path fill="#FFFFFF" stroke="#FFFFFF" stroke-miterlimit="10" d="M26.43,333.975H5.616v-9.883l10.465-5.348l10.349,5.348V333.975z
	 M16.081,315.139L0.5,322.813v3.605h1.744v10.813h27.557v-10.813h2.094v-3.605L16.081,315.139z"/>
<rect x="11.197" y="324.093" fill="#FFFFFF" stroke="#FFFFFF" stroke-miterlimit="10" width="9.649" height="3.487"/>
<rect x="11.197" y="329.092" fill="#FFFFFF" stroke="#FFFFFF" stroke-miterlimit="10" width="9.649" height="3.49"/>
</svg>
